<?xml version="1.0" encoding="utf-8"?>
<!-- Generated by IcoMoon.io -->
<!DOCTYPE svg PUBLIC "-//W3C//DTD SVG 1.1//EN" "http://www.w3.org/Graphics/SVG/1.1/DTD/svg11.dtd">
<svg version="1.1" xmlns="http://www.w3.org/2000/svg" xmlns:xlink="http://www.w3.org/1999/xlink" width="512" height="512" viewBox="0 0 512 512">
<g>
</g>
	<path d="M6812.242 78235.535h346.993v164.342h18.77v164.096h-390.707v-164.096h24.955v-164.342h-0.010zM7075.614 78642.155h60.969v59.924h-60.969v-59.924zM6830.756 78642.155h60.703v59.924h-60.703v-59.924zM6789.1 78585.323h390.164l-15.155 37.284-355.717 1.065-19.292-38.349zM7242.291 78297.518h-39.598v37.817h-41.667v22.098h81.275v-59.914h-0.010zM6728.642 78297.518v59.914h82.565v-22.098h-42.435v-37.817h-40.131zM6837.975 78399.877h295.516v-150.723h-295.516v150.723zM6828.708 78495.038v43.735h62.515v-43.735h-62.515zM7080.51 78495.038v43.735h62.494v-43.735h-62.494zM6914.099 78437.161v18.8h143.268v-18.8h-143.268zM6914.345 78482.678v18.8h143.534v-18.8h-143.534zM6914.622 78528.235v18.483h143.524v-18.483h-143.524z" fill="#000000" />
	<path d="M81.121 79.975c-8.356 54.856-13.127 125.522-36.393 117.78-15.8 0-31.887 0-47.698 0 0 10.137 0 19.958 0 29.798 12.831 0 25.927 0 38.769 0-4.772 8.356-9.544 16.722-14.316 24.74 0 39.055 0 77.834 0 116.572 7.158 7.178 14.316 14.315 21.483 21.504 0 22.64 0 45.302 0 68.004-3.287 34.56 63.478 35.758 62.914 0 0-21.801 0-43.264 0-65.044 98.386 0 196.772 0 295.188 0 0 23.562 0 46.838 0 70.062 10.127 33.423 63.488 31.621 67.369 0 0-25.017 0-50.063 0-75.1 6.574-6.882 13.425-13.425 19.988-19.998 0-40.858 0-81.705 0-122.553-4.158-7.445-8.642-14.899-12.82-22.364 13.107 0 26.224 0 39.373 0-1.792-7.158-3.584-13.998-5.683-21.136-15.821 0-31.611 0-47.421 0-11.008-5.079-16.978-15.524-17.858-30.996-8.356-55.501-15.216-114.217-48.015-113.337-31.611 0-63.222 0-94.525 0 0-11.038 0-22.385 0-33.679-30.402 0-60.539 0-90.942 0 0 11.305 0 22.64 0 33.679-50.719 0.584-113.305-9.257-129.413 22.067v0zM139.838 97.853h231.414c30.096 0 54.846 24.156 54.846 53.678v53.965h-341.094v-53.965c0-29.511 24.73-53.678 54.835-53.678v0zM80.22 246.354c17.613 0 31.611 14.919 31.611 33.679 0 18.462-13.998 33.7-31.611 33.7-17.572 0-31.918-15.237-31.918-33.7 0-18.76 14.346-33.679 31.918-33.679v0zM432.067 246.354c17.572 0 31.897 14.919 31.897 33.679 0 18.462-14.326 33.7-31.897 33.7-17.592 0-31.908-15.237-31.908-33.7 0-18.76 14.326-33.679 31.908-33.679v0zM139.838 274.37h232.591c3.277 0 5.95 2.683 5.95 6.257v0c0 3.584-2.673 6.257-5.95 6.257h-232.591c-3.256 0-5.95-2.683-5.95-6.257v0c0-3.574 2.693-6.257 5.95-6.257v0zM139.838 309.852h232.591c3.277 0 5.95 2.98 5.95 6.564v0c0 3.277-2.673 6.257-5.95 6.257h-232.591c-3.256 0-5.95-2.98-5.95-6.257v0c0-3.584 2.693-6.564 5.95-6.564v0zM139.838 345.63h232.591c3.277 0 5.95 2.704 5.95 6.257v0c0 3.584-2.673 6.257-5.95 6.257h-232.591c-3.256 0-5.95-2.683-5.95-6.257v0c0-3.553 2.693-6.257 5.95-6.257z" fill="#000000" />
</svg>
